<svg id="Camada_1" data-name="Camada 1" xmlns="http://www.w3.org/2000/svg" viewBox="0 0 126.86 25.32"><defs><style>.cls-1{stroke:#000;stroke-width:0.5px;}.cls-1,.cls-2{stroke-miterlimit:10;}.cls-2{fill:#a584ee;stroke:#a584ee;stroke-width:0.75px;}</style></defs><title>BEAUTY4ME_logo</title><path class="cls-1" d="M14.33,20.52a3.63,3.63,0,0,1-.54,2,4,4,0,0,1-1.45,1.39,4.08,4.08,0,0,1-2,.51h-7V9.47h7a3,3,0,0,1,1.82.56,3.74,3.74,0,0,1,1.18,1.43,4.24,4.24,0,0,1,.41,1.81,3.93,3.93,0,0,1-.57,2.07,3.41,3.41,0,0,1-1.58,1.4,3.66,3.66,0,0,1,2,1.42A3.93,3.93,0,0,1,14.33,20.52ZM4.41,10.44v6H9.87A2.43,2.43,0,0,0,11.31,16a3.09,3.09,0,0,0,1.33-2.55,3.36,3.36,0,0,0-.33-1.49,2.82,2.82,0,0,0-.94-1.08A2.36,2.36,0,0,0,10,10.44Zm8.84,9.93a3.15,3.15,0,0,0-1.36-2.62,2.4,2.4,0,0,0-1.43-.44H4.41v6.11h5.9A2.73,2.73,0,0,0,11.8,23a3.16,3.16,0,0,0,1.07-1.14A3.1,3.1,0,0,0,13.25,20.37Z" transform="translate(-3.09 -3.77)"/><path class="cls-1" d="M27.18,23.42v1H17.24V9.47H27v1H18.31V16.3H25.9v.92H18.31v6.2Z" transform="translate(-3.09 -3.77)"/><path class="cls-1" d="M34.78,9.47h.92L42,24.38H40.87l-2-4.91H31.63l-2,4.91H28.44Zm3.69,9.12-3.23-7.82L32,18.59Z" transform="translate(-3.09 -3.77)"/><path class="cls-1" d="M49.65,24.49a6.32,6.32,0,0,1-3-.63,5.13,5.13,0,0,1-1.92-1.71,7.55,7.55,0,0,1-1-2.43A12,12,0,0,1,43.41,17V9.47h1.07V17a11.21,11.21,0,0,0,.25,2.39,6.69,6.69,0,0,0,.83,2.11A4.19,4.19,0,0,0,47.14,23a5.16,5.16,0,0,0,2.49.54,5,5,0,0,0,2.5-.57,4.15,4.15,0,0,0,1.58-1.5,6.48,6.48,0,0,0,.82-2.1A11.59,11.59,0,0,0,54.77,17V9.47h1.07V17a12.64,12.64,0,0,1-.32,2.85,7.06,7.06,0,0,1-1.06,2.4,5.24,5.24,0,0,1-1.92,1.66A6.18,6.18,0,0,1,49.65,24.49Z" transform="translate(-3.09 -3.77)"/><path class="cls-1" d="M69.93,10.44H64.47V24.38H63.4V10.44H57.94v-1h12Z" transform="translate(-3.09 -3.77)"/><path class="cls-1" d="M71.86,9.47l5.21,8.26L82.3,9.47h1.2l-5.88,9.28v5.63H76.55V18.71L70.69,9.47Z" transform="translate(-3.09 -3.77)"/><path class="cls-1" d="M114.79,24.38V11.55l-5.86,10h-.72l-5.85-10V24.38h-1.07V9.47h1.07l6.21,10.67,6.22-10.67h1.07V24.38Z" transform="translate(-3.09 -3.77)"/><path class="cls-1" d="M129.7,23.42v1h-9.93V9.47h9.74v1h-8.67V16.3h7.58v.92h-7.58v6.2Z" transform="translate(-3.09 -3.77)"/><path class="cls-2" d="M95.29,4.82a75.09,75.09,0,0,1-4.62,7,43.31,43.31,0,0,1-5.33,6.09,31.15,31.15,0,0,1,8-1A70.22,70.22,0,0,1,97,8.21c.27-.43.88-.27.68.2S96.34,11.65,95,15.22l-.6,1.68c.59,0,1.18.06,1.8.12a.12.12,0,0,1,.12.12.13.13,0,0,1-.14.13h0c-.64-.06-1.25-.1-1.85-.12a92.47,92.47,0,0,0-3.28,11.29c-.08.4-.74.35-.68-.06a49.57,49.57,0,0,1,2.48-10.16c.12-.37.24-.73.37-1.09A28.54,28.54,0,0,0,84,18.6H83.9a.14.14,0,0,1-.14-.13.12.12,0,0,1,0-.09,69.94,69.94,0,0,0,7-8.44c1.83-2.5,3.34-4.7,3.85-5.46a.65.65,0,0,1,.53-.34C95.39,4.15,95.54,4.39,95.29,4.82Z" transform="translate(-3.09 -3.77)"/></svg>